<svg id="Layer_1" data-name="Layer 1" xmlns="http://www.w3.org/2000/svg" viewBox="0 0 73.54 163.6">
	<circle cx="36.77" cy="81.44" r="36.27" style="fill:none;stroke:#000;stroke-miterlimit:10" />
	<path d="M17,.5H56.51a0,0,0,0,1,0,0V34.37a5.6,5.6,0,0,1-5.6,5.6H22.77A5.73,5.73,0,0,1,17,34.23V.5A0,0,0,0,1,17,.5Z" style="fill:none;stroke:#000;stroke-miterlimit:10" />
	<path d="M-602.82,331.33h39.47a0,0,0,0,1,0,0V365.2a5.6,5.6,0,0,1-5.6,5.6h-28.13a5.73,5.73,0,0,1-5.73-5.73V331.33A0,0,0,0,1-602.82,331.33Z" transform="translate(-546.32 494.43) rotate(180)" style="fill:none;stroke:#000;stroke-miterlimit:10" />
	<path d="M-563.35,367.18h0Z" transform="translate(619.86 -207.7)" style="fill:none;stroke:#000;stroke-miterlimit:10" />
</svg>
