<svg id="Layer_1" data-name="Layer 1" xmlns="http://www.w3.org/2000/svg" viewBox="0 0 163.6 163.6">
	<defs>
		<style>
			.cls-1{fill:none;stroke:#000;stroke-miterlimit:10;}
		</style>
	</defs>
	<circle class="cls-1" cx="81.8" cy="81.44" r="36.27" />
	<path class="cls-1" d="M62.07.5h39.47a0,0,0,0,1,0,0V34.37a5.6,5.6,0,0,1-5.6,5.6H67.8a5.73,5.73,0,0,1-5.73-5.73V.5A0,0,0,0,1,62.07.5Z" />
	<path class="cls-1" d="M-1472.57,420.27h39.47a0,0,0,0,1,0,0v33.87a5.6,5.6,0,0,1-5.6,5.6h-28.13a5.73,5.73,0,0,1-5.73-5.73V420.27A0,0,0,0,1-1472.57,420.27Z" transform="translate(-1371.04 583.37) rotate(180)" />
	<path class="cls-1" d="M-1411,358.7h39.47a0,0,0,0,1,0,0v33.87a5.6,5.6,0,0,1-5.6,5.6h-28.13a5.73,5.73,0,0,1-5.73-5.73V358.7A0,0,0,0,1-1411,358.7Z" transform="translate(521.8 1473.07) rotate(90)" />
	<path class="cls-1" d="M-1534.14,358.7h39.47a0,0,0,0,1,0,0v33.87a5.6,5.6,0,0,1-5.6,5.6h-28.13a5.73,5.73,0,0,1-5.73-5.73V358.7A0,0,0,0,1-1534.14,358.7Z" transform="translate(-358.2 -1432.61) rotate(-90)" />
</svg>
