<svg id="Layer_1" data-name="Layer 1" viewBox="0 0 243.24 134.76">
	<path class="cls-1" d="M-1656.45,366.4H-1617a0,0,0,0,1,0,0v33.87a5.6,5.6,0,0,1-5.6,5.6h-28.13a5.73,5.73,0,0,1-5.73-5.73V366.4A0,0,0,0,1-1656.45,366.4Z" transform="translate(-365.9 -1568.64) rotate(-90)" />
	<rect class="cls-1" x="45.62" y="45.41" width="152" height="44.27" rx="6.67" />
	<path class="cls-1" d="M55.13.5H94.6a0,0,0,0,1,0,0V34.37A5.6,5.6,0,0,1,89,40H60.86a5.73,5.73,0,0,1-5.73-5.73V.5A0,0,0,0,1,55.13.5Z" />
	<path class="cls-1" d="M102.1.5h39.47a0,0,0,0,1,0,0V34.37A5.6,5.6,0,0,1,136,40H107.84a5.73,5.73,0,0,1-5.73-5.73V.5A0,0,0,0,1,102.1.5Z" />
	<path class="cls-1" d="M148.64.5H188.1a0,0,0,0,1,0,0V34.37a5.6,5.6,0,0,1-5.6,5.6H154.37a5.73,5.73,0,0,1-5.73-5.73V.5A0,0,0,0,1,148.64.5Z" />
	<path class="cls-1" d="M-1453.68,365h39.47a0,0,0,0,1,0,0v33.87a5.6,5.6,0,0,1-5.6,5.6h-28.13a5.73,5.73,0,0,1-5.73-5.73V365A0,0,0,0,1-1453.68,365Z" transform="translate(607.75 1500.64) rotate(90)" />
	<path class="cls-1" d="M-1508.31,412.85h39.47a0,0,0,0,1,0,0v33.87a5.6,5.6,0,0,1-5.6,5.6h-28.13a5.73,5.73,0,0,1-5.73-5.73V412.85A0,0,0,0,1-1508.31,412.85Z" transform="translate(-1320.21 547.12) rotate(180)" />
	<path class="cls-1" d="M-1555.29,412.85h39.47a0,0,0,0,1,0,0v33.87a5.6,5.6,0,0,1-5.6,5.6h-28.13a5.73,5.73,0,0,1-5.73-5.73V412.85A0,0,0,0,1-1555.29,412.85Z" transform="translate(-1414.16 547.12) rotate(180)" />
	<path class="cls-1" d="M-1601.82,412.85h39.47a0,0,0,0,1,0,0v33.87a5.6,5.6,0,0,1-5.6,5.6h-28.13a5.73,5.73,0,0,1-5.73-5.73V412.85A0,0,0,0,1-1601.82,412.85Z" transform="translate(-1507.22 547.12) rotate(180)" />
</svg>
